PathFileType	4	(X/Y/Z)	E:/New_biomech_experiments/2 Elbow flexion/Shreyas_pp_27_6_24_t02.trc	
DataRate	CameraRate	NumFrames	NumMarkers	Units	OrigDataRate	OrigDataStartFrame	OrigNumFrames	
120.00	120.00	102	3	m	120.00	3690	5903	
Frame#	Time	r_humerus_epicondyle			r_acromion			r_radius_styloid			
		X1	Y1	Z1	X2	Y2	Z2	X3	Y3	Z3	

3690	30.742	-0.02110	0.47630	0.26326	-0.01695	0.81297	0.20827	0.23106	0.45795	0.27321 
3691	30.750	-0.02108	0.47632	0.26332	-0.01692	0.81299	0.20829	0.23105	0.45791	0.27324 
3692	30.758	-0.02107	0.47634	0.26337	-0.01689	0.81300	0.20831	0.23103	0.45784	0.27326 
3693	30.767	-0.02105	0.47635	0.26342	-0.01686	0.81302	0.20833	0.23099	0.45774	0.27326 
3694	30.775	-0.02103	0.47637	0.26346	-0.01682	0.81303	0.20834	0.23092	0.45760	0.27324 
3695	30.783	-0.02101	0.47639	0.26351	-0.01678	0.81304	0.20835	0.23085	0.45744	0.27319 
3696	30.792	-0.02099	0.47641	0.26356	-0.01674	0.81305	0.20837	0.23078	0.45729	0.27316 
3697	30.800	-0.02097	0.47643	0.26361	-0.01669	0.81306	0.20838	0.23074	0.45717	0.27316 
3698	30.808	-0.02096	0.47645	0.26366	-0.01664	0.81308	0.20838	0.23071	0.45709	0.27318 
3699	30.817	-0.02094	0.47646	0.26370	-0.01659	0.81309	0.20839	0.23070	0.45702	0.27321 
3700	30.825	-0.02092	0.47648	0.26375	-0.01653	0.81309	0.20840	0.23069	0.45697	0.27325 
3701	30.833	-0.02090	0.47650	0.26379	-0.01647	0.81310	0.20840	0.23069	0.45694	0.27330 
3702	30.842	-0.02087	0.47651	0.26382	-0.01641	0.81311	0.20840	0.23070	0.45692	0.27334 
3703	30.850	-0.02085	0.47653	0.26386	-0.01634	0.81311	0.20840	0.23071	0.45691	0.27338 
3704	30.858	-0.02082	0.47654	0.26389	-0.01628	0.81311	0.20840	0.23072	0.45690	0.27342 
3705	30.867	-0.02080	0.47655	0.26391	-0.01621	0.81311	0.20840	0.23073	0.45689	0.27346 
3706	30.875	-0.02077	0.47656	0.26393	-0.01615	0.81311	0.20840	0.23075	0.45689	0.27349 
3707	30.883	-0.02075	0.47656	0.26394	-0.01608	0.81311	0.20839	0.23077	0.45690	0.27352 
3708	30.892	-0.02072	0.47657	0.26395	-0.01601	0.81311	0.20839	0.23078	0.45690	0.27354 
3709	30.900	-0.02069	0.47657	0.26394	-0.01593	0.81311	0.20838	0.23081	0.45691	0.27355 
3710	30.908	-0.02066	0.47657	0.26394	-0.01586	0.81311	0.20837	0.23084	0.45694	0.27353 
3711	30.917	-0.02063	0.47658	0.26392	-0.01579	0.81311	0.20836	0.23089	0.45696	0.27350 
3712	30.925	-0.02059	0.47659	0.26391	-0.01572	0.81312	0.20835	0.23093	0.45698	0.27347 
3713	30.933	-0.02055	0.47660	0.26388	-0.01565	0.81313	0.20834	0.23098	0.45701	0.27343 
3714	30.942	-0.02051	0.47661	0.26386	-0.01558	0.81314	0.20832	0.23102	0.45703	0.27338 
3715	30.950	-0.02047	0.47662	0.26383	-0.01551	0.81315	0.20831	0.23107	0.45706	0.27333 
3716	30.958	-0.02043	0.47663	0.26380	-0.01545	0.81315	0.20830	0.23112	0.45710	0.27327 
3717	30.967	-0.02039	0.47663	0.26377	-0.01538	0.81316	0.20828	0.23117	0.45714	0.27321 
3718	30.975	-0.02034	0.47664	0.26375	-0.01531	0.81316	0.20827	0.23123	0.45718	0.27315 
3719	30.983	-0.02029	0.47665	0.26373	-0.01525	0.81317	0.20825	0.23128	0.45722	0.27308 
3720	30.992	-0.02025	0.47665	0.26371	-0.01519	0.81317	0.20824	0.23134	0.45727	0.27301 
3721	31.000	-0.02020	0.47665	0.26369	-0.01513	0.81316	0.20822	0.23140	0.45732	0.27294 
3722	31.008	-0.02014	0.47665	0.26367	-0.01508	0.81315	0.20821	0.23146	0.45737	0.27287 
3723	31.017	-0.02009	0.47665	0.26366	-0.01502	0.81315	0.20820	0.23152	0.45743	0.27280 
3724	31.025	-0.02003	0.47665	0.26365	-0.01497	0.81314	0.20818	0.23159	0.45749	0.27274 
3725	31.033	-0.01998	0.47665	0.26363	-0.01492	0.81312	0.20817	0.23167	0.45757	0.27268 
3726	31.042	-0.01991	0.47664	0.26362	-0.01487	0.81311	0.20816	0.23176	0.45766	0.27264 
3727	31.050	-0.01985	0.47663	0.26361	-0.01482	0.81310	0.20814	0.23186	0.45776	0.27260 
3728	31.058	-0.01979	0.47662	0.26360	-0.01477	0.81309	0.20813	0.23197	0.45789	0.27259 
3729	31.067	-0.01972	0.47661	0.26360	-0.01472	0.81307	0.20812	0.23208	0.45801	0.27258 
3730	31.075	-0.01966	0.47660	0.26359	-0.01468	0.81305	0.20811	0.23215	0.45807	0.27252 
3731	31.083	-0.01959	0.47659	0.26358	-0.01464	0.81303	0.20810	0.23220	0.45807	0.27243 
3732	31.092	-0.01953	0.47657	0.26356	-0.01460	0.81302	0.20809	0.23225	0.45808	0.27235 
3733	31.100	-0.01947	0.47656	0.26355	-0.01456	0.81300	0.20809	0.23232	0.45813	0.27231 
3734	31.108	-0.01941	0.47655	0.26354	-0.01452	0.81298	0.20808	0.23242	0.45822	0.27229 
3735	31.117	-0.01935	0.47653	0.26353	-0.01449	0.81296	0.20807	0.23252	0.45831	0.27229 
3736	31.125	-0.01929	0.47652	0.26352	-0.01445	0.81294	0.20807	0.23262	0.45840	0.27230 
3737	31.133	-0.01924	0.47650	0.26351	-0.01442	0.81292	0.20806	0.23272	0.45848	0.27230 
3738	31.142	-0.01920	0.47648	0.26349	-0.01439	0.81290	0.20805	0.23280	0.45854	0.27230 
3739	31.150	-0.01915	0.47646	0.26348	-0.01435	0.81288	0.20805	0.23285	0.45854	0.27226 
3740	31.158	-0.01911	0.47644	0.26347	-0.01432	0.81285	0.20804	0.23288	0.45852	0.27221 
3741	31.167	-0.01907	0.47642	0.26346	-0.01429	0.81283	0.20804	0.23295	0.45855	0.27221 
3742	31.175	-0.01904	0.47640	0.26345	-0.01426	0.81281	0.20803	0.23304	0.45863	0.27224 
3743	31.183	-0.01901	0.47639	0.26343	-0.01422	0.81279	0.20803	0.23312	0.45870	0.27228 
3744	31.192	-0.01898	0.47637	0.26342	-0.01418	0.81277	0.20802	0.23319	0.45874	0.27229 
3745	31.200	-0.01896	0.47635	0.26341	-0.01413	0.81275	0.20802	0.23325	0.45876	0.27230 
3746	31.208	-0.01893	0.47634	0.26340	-0.01408	0.81273	0.20801	0.23329	0.45876	0.27229 
3747	31.217	-0.01891	0.47632	0.26340	-0.01403	0.81271	0.20801	0.23333	0.45875	0.27228 
3748	31.225	-0.01889	0.47630	0.26339	-0.01397	0.81269	0.20801	0.23336	0.45873	0.27226 
3749	31.233	-0.01887	0.47628	0.26338	-0.01390	0.81268	0.20800	0.23339	0.45870	0.27224 
3750	31.242	-0.01884	0.47627	0.26338	-0.01382	0.81266	0.20800	0.23341	0.45868	0.27222 
3751	31.250	-0.01882	0.47625	0.26337	-0.01374	0.81264	0.20800	0.23343	0.45865	0.27220 
3752	31.258	-0.01880	0.47624	0.26336	-0.01366	0.81262	0.20799	0.23345	0.45862	0.27217 
3753	31.267	-0.01878	0.47622	0.26334	-0.01356	0.81260	0.20799	0.23347	0.45859	0.27215 
3754	31.275	-0.01876	0.47621	0.26333	-0.01347	0.81258	0.20798	0.23350	0.45857	0.27212 
3755	31.283	-0.01873	0.47620	0.26331	-0.01337	0.81256	0.20796	0.23352	0.45854	0.27209 
3756	31.292	-0.01870	0.47620	0.26328	-0.01327	0.81255	0.20795	0.23354	0.45852	0.27206 
3757	31.300	-0.01868	0.47619	0.26326	-0.01317	0.81254	0.20793	0.23356	0.45849	0.27203 
3758	31.308	-0.01865	0.47619	0.26323	-0.01306	0.81253	0.20791	0.23359	0.45847	0.27200 
3759	31.317	-0.01861	0.47619	0.26319	-0.01296	0.81253	0.20788	0.23362	0.45845	0.27196 
3760	31.325	-0.01858	0.47618	0.26316	-0.01286	0.81252	0.20786	0.23365	0.45843	0.27193 
3761	31.333	-0.01854	0.47618	0.26311	-0.01276	0.81251	0.20783	0.23368	0.45841	0.27190 
3762	31.342	-0.01850	0.47618	0.26307	-0.01266	0.81251	0.20781	0.23371	0.45839	0.27186 
3763	31.350	-0.01846	0.47617	0.26302	-0.01257	0.81251	0.20778	0.23374	0.45837	0.27183 
3764	31.358	-0.01843	0.47616	0.26297	-0.01248	0.81250	0.20776	0.23378	0.45835	0.27180 
3765	31.367	-0.01839	0.47616	0.26291	-0.01240	0.81250	0.20774	0.23381	0.45834	0.27177 
3766	31.375	-0.01835	0.47614	0.26286	-0.01233	0.81249	0.20772	0.23385	0.45833	0.27175 
3767	31.383	-0.01831	0.47613	0.26281	-0.01226	0.81248	0.20770	0.23388	0.45832	0.27172 
3768	31.392	-0.01827	0.47611	0.26276	-0.01220	0.81247	0.20768	0.23392	0.45832	0.27170 
3769	31.400	-0.01823	0.47609	0.26272	-0.01214	0.81246	0.20766	0.23395	0.45831	0.27168 
3770	31.408	-0.01819	0.47607	0.26267	-0.01209	0.81244	0.20764	0.23399	0.45831	0.27165 
3771	31.417	-0.01815	0.47605	0.26263	-0.01204	0.81242	0.20762	0.23402	0.45830	0.27164 
3772	31.425	-0.01811	0.47603	0.26259	-0.01200	0.81240	0.20760	0.23405	0.45830	0.27162 
3773	31.433	-0.01807	0.47601	0.26256	-0.01196	0.81238	0.20758	0.23409	0.45830	0.27161 
3774	31.442	-0.01804	0.47599	0.26253	-0.01192	0.81237	0.20755	0.23412	0.45829	0.27159 
3775	31.450	-0.01800	0.47598	0.26250	-0.01189	0.81235	0.20753	0.23415	0.45829	0.27159 
3776	31.458	-0.01797	0.47596	0.26248	-0.01185	0.81233	0.20750	0.23418	0.45828	0.27158 
3777	31.467	-0.01795	0.47595	0.26246	-0.01180	0.81232	0.20748	0.23420	0.45827	0.27157 
3778	31.475	-0.01792	0.47594	0.26244	-0.01176	0.81231	0.20745	0.23423	0.45827	0.27156 
3779	31.483	-0.01790	0.47594	0.26243	-0.01171	0.81231	0.20743	0.23425	0.45826	0.27155 
3780	31.492	-0.01788	0.47594	0.26241	-0.01165	0.81231	0.20740	0.23426	0.45825	0.27154 
3781	31.500	-0.01786	0.47595	0.26239	-0.01159	0.81231	0.20738	0.23428	0.45825	0.27153 
3782	31.508	-0.01784	0.47596	0.26238	-0.01153	0.81232	0.20735	0.23430	0.45824	0.27152 
3783	31.517	-0.01782	0.47598	0.26236	-0.01147	0.81233	0.20733	0.23433	0.45824	0.27151 
3784	31.525	-0.01779	0.47601	0.26234	-0.01139	0.81235	0.20730	0.23435	0.45824	0.27149 
3785	31.533	-0.01776	0.47604	0.26232	-0.01132	0.81238	0.20728	0.23437	0.45825	0.27147 
3786	31.542	-0.01772	0.47608	0.26230	-0.01124	0.81241	0.20725	0.23440	0.45825	0.27145 
3787	31.550	-0.01768	0.47612	0.26229	-0.01116	0.81244	0.20722	0.23443	0.45826	0.27143 
3788	31.558	-0.01764	0.47616	0.26227	-0.01108	0.81247	0.20719	0.23447	0.45826	0.27140 
3789	31.567	-0.01759	0.47620	0.26225	-0.01099	0.81251	0.20716	0.23450	0.45827	0.27138 
3790	31.575	-0.01754	0.47625	0.26224	-0.01090	0.81255	0.20712	0.23454	0.45828	0.27135 
3791	31.583	-0.01749	0.47630	0.26222	-0.01081	0.81259	0.20709	0.23458	0.45830	0.27132 
